<?xml version="1.0" standalone="no"?>
<!DOCTYPE svg PUBLIC "-//W3C//DTD SVG 20010904//EN"
 "http://www.w3.org/TR/2001/REC-SVG-20010904/DTD/svg10.dtd">
<svg version="1.0" xmlns="http://www.w3.org/2000/svg"
 width="253.000000pt" height="253.000000pt" viewBox="0 0 253.000000 253.000000"
 preserveAspectRatio="xMidYMid meet">
<metadata>
Created by potrace 1.11, written by Peter Selinger 2001-2013
</metadata>
<g transform="translate(0.000000,253.000000) scale(0.100000,-0.100000)"
fill="#000000" stroke="none">
<path d="M10 1265 l0 -1265 1255 0 1255 0 0 1265 0 1265 -1255 0 -1255 0 0
-1265z m1485 1077 c160 -42 200 -54 258 -82 124 -58 209 -121 322 -235 183
-187 305 -483 305 -744 0 -189 -33 -328 -120 -506 -139 -283 -405 -499 -710
-576 -84 -21 -117 -24 -290 -24 l-195 0 -121 42 c-212 72 -323 140 -464 282
-129 130 -225 296 -276 474 -21 75 -27 121 -31 247 -5 145 -3 163 22 270 28
115 52 186 61 177 3 -2 -3 -24 -12 -48 -26 -71 -29 -109 -9 -109 15 0 17 -7
10 -65 -6 -58 -5 -64 10 -59 15 6 16 1 12 -44 -6 -62 0 -92 20 -92 8 0 29 -16
45 -35 17 -19 35 -32 39 -29 4 2 14 -5 22 -16 9 -13 20 -18 31 -14 10 4 18 0
23 -12 4 -10 2 -19 -5 -22 -7 -2 -9 -8 -6 -14 4 -6 10 -5 15 3 8 11 12 10 24
-5 8 -11 15 -28 15 -38 0 -15 5 -17 25 -12 20 5 26 1 35 -21 5 -14 10 -38 11
-53 l0 -27 11 25 c13 29 15 36 17 53 0 6 16 -5 34 -25 19 -21 41 -38 49 -38
18 0 34 33 19 38 -12 4 -15 35 -5 45 4 3 15 2 25 -3 12 -7 20 -7 24 0 11 18
25 10 25 -14 0 -13 -6 -27 -12 -30 -7 -3 -4 -4 7 -3 15 2 20 10 18 30 -1 21 3
27 18 27 26 0 24 16 -3 24 -36 9 -78 7 -78 -4 0 -5 -11 -10 -25 -10 -14 0 -28
-7 -31 -15 -5 -11 -10 -12 -25 -2 -15 9 -23 9 -39 -1 -16 -10 -20 -10 -20 1 0
23 -61 89 -77 82 -11 -4 -13 -1 -9 11 3 8 6 19 6 24 0 4 10 6 23 2 20 -5 21
-4 7 13 -13 16 -13 19 8 33 12 8 22 23 22 33 0 21 20 27 20 7 0 -7 5 -5 11 5
16 27 36 20 49 -18 13 -39 41 -52 82 -36 14 5 35 7 47 4 14 -3 21 -1 21 9 0
14 -34 48 -48 48 -9 0 -56 60 -50 65 1 2 24 6 49 10 35 5 48 3 58 -9 12 -15
15 -15 26 1 10 14 9 20 -9 35 -11 9 -16 18 -11 18 6 1 25 3 44 5 26 2 34 -1
39 -17 3 -13 7 -16 12 -8 5 8 10 2 14 -14 8 -33 26 -34 26 -1 0 29 15 33 29 8
9 -15 10 -13 11 13 0 22 -7 36 -22 46 -12 8 -18 19 -14 26 9 16 36 3 36 -17 0
-9 9 -22 21 -29 12 -8 18 -19 15 -28 -6 -17 3 -44 15 -44 5 0 9 11 9 24 0 14
5 28 10 31 6 4 10 -12 10 -39 0 -30 -4 -46 -12 -47 -10 0 -10 -2 0 -6 6 -2 12
-9 12 -15 0 -6 8 -17 18 -24 16 -13 16 -14 0 -8 -14 5 -18 1 -18 -20 0 -14 5
-26 10 -26 6 0 10 6 10 13 0 8 3 7 10 -3 12 -19 33 -1 35 32 2 22 25 40 25 19
0 -6 12 -11 26 -11 19 0 25 4 22 18 -2 11 -13 17 -28 17 -24 0 -25 3 -24 55 1
36 6 56 15 59 8 2 25 15 39 28 22 22 31 24 87 20 52 -3 65 -1 79 14 9 10 24
21 33 24 9 3 17 14 18 25 2 26 -13 26 -20 -1 -5 -18 -8 -19 -29 -8 -20 11 -20
14 -5 17 23 5 22 22 -2 22 -10 0 -24 7 -31 15 -7 8 -16 12 -21 9 -5 -3 -9 0
-9 6 0 6 -10 8 -25 4 -31 -8 -33 4 -3 15 13 5 29 4 39 -2 11 -7 30 -5 62 6 39
13 47 13 47 2 0 -7 -6 -15 -12 -18 -9 -3 -10 -8 -2 -16 8 -9 16 -6 34 9 23 20
23 21 4 35 -21 16 -64 20 -64 6 0 -11 -38 -2 -46 11 -3 5 6 6 22 2 23 -6 26
-4 21 10 -5 13 -2 15 21 10 15 -4 29 -7 32 -7 22 -3 148 17 157 25 15 12 33 2
33 -18 0 -12 -7 -14 -29 -9 -26 6 -30 3 -36 -24 -4 -17 -15 -33 -26 -36 -20
-7 -27 -25 -9 -25 6 0 10 5 10 12 0 6 9 1 20 -12 11 -13 20 -26 20 -29 0 -4
12 -6 28 -5 15 1 26 6 25 12 -2 6 4 9 12 6 19 -8 32 23 16 39 -18 18 -13 27
19 38 l29 11 -28 24 c-16 13 -34 24 -40 24 -19 0 -12 32 9 37 20 5 28 23 11
23 -5 0 -11 7 -15 15 -3 8 0 14 7 12 7 -1 12 7 12 18 0 11 -6 19 -12 17 -7 -1
-14 6 -15 15 0 10 -2 30 -3 45 -2 29 -16 45 -60 69 -18 9 -29 22 -27 32 2 9
-2 17 -8 17 -5 0 -10 5 -10 11 0 6 17 9 42 7 35 -2 43 0 46 15 6 30 -19 77
-44 83 -30 8 -31 20 -3 27 20 5 20 6 3 32 -16 24 -18 25 -40 10 -13 -8 -25
-14 -25 -13 -8 16 -4 48 6 48 18 0 57 37 46 44 -5 4 -14 -2 -20 -11 -7 -12
-13 -14 -18 -7 -9 11 -53 38 -93 54 -41 18 -76 40 -62 40 10 0 10 5 2 20 -9
16 -22 20 -73 21 -54 2 -57 3 -22 8 47 7 183 -3 240 -17z m-45 -262 c0 -5 -5
-10 -11 -10 -5 0 -7 5 -4 10 3 6 8 10 11 10 2 0 4 -4 4 -10z m60 -34 c0 -3 -4
-8 -10 -11 -5 -3 -10 -1 -10 4 0 6 5 11 10 11 6 0 10 -2 10 -4z m780 -191 c0
-8 -7 -15 -15 -15 -8 0 -15 7 -15 15 0 8 7 15 15 15 8 0 15 -7 15 -15z m-833
-147 c-3 -7 -5 -2 -5 12 0 14 2 19 5 13 2 -7 2 -19 0 -25z m137 6 c9 -24 7
-27 -9 -10 -17 17 -19 26 -6 26 5 0 12 -7 15 -16z m-1314 -9 c0 -8 -4 -15 -10
-15 -5 0 -7 7 -4 15 4 8 8 15 10 15 2 0 4 -7 4 -15z m950 -14 c0 -11 -4 -23
-10 -26 -5 -3 -10 -2 -10 4 0 5 -3 16 -6 25 -4 11 -1 16 10 16 9 0 16 -8 16
-19z m-34 -28 c22 -29 17 -53 -10 -53 -13 0 -26 -5 -28 -12 -7 -19 -28 1 -28
27 0 13 10 31 22 39 28 20 28 20 44 -1z m-24 -92 c-5 -3 -11 -15 -13 -25 -6
-31 -26 -29 -31 3 -2 16 -2 28 2 26 3 -2 12 0 20 5 8 5 18 6 23 3 5 -3 5 -8
-1 -12z m438 1 c0 -4 -5 -13 -12 -20 -18 -18 -28 -15 -28 8 0 13 7 20 20 20
11 0 20 -4 20 -8z m-514 -40 c-8 -13 -46 -22 -46 -11 0 10 42 30 49 23 1 -1 0
-7 -3 -12z m-664 -34 c-9 -9 -7 -17 9 -34 l20 -22 -25 -6 c-14 -3 -26 -11 -26
-16 0 -6 -4 -10 -10 -10 -5 0 -10 11 -10 24 0 14 5 28 10 31 6 3 10 15 10 26
0 11 7 19 17 19 13 0 14 -3 5 -12z m698 2 c0 -5 -8 -10 -17 -10 -15 0 -16 2
-3 10 19 12 20 12 20 0z m45 0 c3 -5 1 -10 -4 -10 -6 0 -11 5 -11 10 0 6 2 10
4 10 3 0 8 -4 11 -10z m-460 -120 c11 -17 -5 -32 -21 -19 -8 6 -14 15 -14 20
0 12 27 11 35 -1z m415 -16 c0 -8 -4 -12 -10 -9 -5 3 -10 10 -10 16 0 5 5 9
10 9 6 0 10 -7 10 -16z m-409 -122 c-7 -2 -18 1 -23 6 -8 8 -4 9 13 5 13 -4
18 -8 10 -11z"/>
<path d="M1373 2321 c5 -31 11 -33 57 -21 33 9 45 9 50 -1 4 -6 13 -8 20 -4
18 11 -23 31 -83 40 -44 7 -47 6 -44 -14z"/>
<path d="M1515 2280 c3 -5 8 -10 11 -10 2 0 4 5 4 10 0 6 -5 10 -11 10 -5 0
-7 -4 -4 -10z"/>
<path d="M1620 2020 c0 -5 7 -10 16 -10 8 0 12 5 9 10 -3 6 -10 10 -16 10 -5
0 -9 -4 -9 -10z"/>
<path d="M1672 1707 c-13 -16 0 -40 20 -35 11 2 12 7 2 26 -9 18 -13 20 -22 9z"/>
<path d="M1830 1691 c0 -5 7 -11 14 -14 10 -4 13 -1 9 9 -6 15 -23 19 -23 5z"/>
<path d="M1785 1660 c-3 -5 -1 -10 4 -10 6 0 11 5 11 10 0 6 -2 10 -4 10 -3 0
-8 -4 -11 -10z"/>
<path d="M1676 1561 c-4 -7 -5 -15 -2 -18 9 -9 19 4 14 18 -4 11 -6 11 -12 0z"/>
<path d="M226 1353 c-4 -9 -2 -21 4 -27 7 -7 10 -2 10 17 0 31 -5 34 -14 10z"/>
<path d="M950 1316 c0 -21 -20 -30 -33 -17 -16 16 -24 14 -30 -9 -4 -16 -11
-18 -41 -13 -24 4 -36 2 -36 -6 0 -6 16 -11 35 -11 24 0 35 -5 35 -15 0 -8 7
-15 16 -15 8 0 12 5 9 10 -4 6 6 10 22 10 20 0 24 -3 14 -9 -16 -10 -6 -31 15
-31 8 0 14 -7 14 -15 0 -8 3 -14 8 -14 17 3 33 -2 29 -8 -3 -5 6 -9 19 -9 23
-2 23 -1 9 26 -10 19 -25 30 -42 33 l-28 4 32 13 c27 12 31 18 26 40 -3 14
-12 31 -21 38 -21 16 -52 15 -52 -2z m60 -26 c0 -5 -9 -10 -20 -10 -11 0 -20
5 -20 10 0 6 9 10 20 10 11 0 20 -4 20 -10z"/>
<path d="M640 1139 c0 -33 3 -40 18 -37 9 1 23 -1 30 -6 8 -5 18 -4 25 3 8 8
5 11 -10 11 -31 0 -36 15 -17 45 16 25 16 25 -15 25 -30 0 -31 -2 -31 -41z"/>
<path d="M719 1171 c9 -6 10 -11 2 -15 -6 -4 -9 -12 -6 -17 8 -12 65 -12 65 0
0 13 -41 41 -60 41 -12 0 -12 -2 -1 -9z"/>
<path d="M587 1123 c-3 -5 -2 -15 2 -22 7 -10 10 -10 16 -1 4 6 3 16 -3 22 -5
5 -12 6 -15 1z"/>
<path d="M906 1105 c-3 -9 0 -15 9 -15 8 0 15 -5 15 -12 0 -6 2 -9 5 -7 6 7
-6 49 -15 49 -4 0 -10 -7 -14 -15z"/>
<path d="M872 1077 c-10 -12 -10 -18 3 -30 8 -9 15 -24 16 -34 0 -10 3 -13 5
-7 2 6 1 27 -3 48 -7 33 -10 36 -21 23z"/>
<path d="M1090 1025 c0 -8 4 -15 10 -15 5 0 7 7 4 15 -4 8 -8 15 -10 15 -2 0
-4 -7 -4 -15z"/>
<path d="M850 934 c0 -14 4 -23 9 -20 5 3 7 15 4 26 -7 28 -13 25 -13 -6z"/>
</g>
</svg>
